Coordinates
version=1
nRows=8
nColumns=36
inDegrees=yes

Units are S.I. units (second, meters, Newtons, ...)
If the header above contains a line with 'inDegrees', this indicates whether rotational values are in degrees (yes) or radians (no).

endheader
time	pelvis_tilt	pelvis_list	pelvis_rotation	pelvis_tx	pelvis_ty	pelvis_tz	hip_flexion_r	hip_adduction_r	hip_rotation_r	knee_angle_r	knee_angle_r_beta	ankle_angle_r	subtalar_angle_r	mtp_angle_r	hip_flexion_l	hip_adduction_l	hip_rotation_l	knee_angle_l	knee_angle_l_beta	ankle_angle_l	subtalar_angle_l	mtp_angle_l	lumbar_extension	lumbar_bending	lumbar_rotation	arm_flex_r	arm_add_r	arm_rot_r	elbow_flex_r	pro_sup_r	arm_flex_l	arm_add_l	arm_rot_l	elbow_flex_l	pro_sup_l
      2.92916670	    -14.99751487	     -0.68803574	      3.50844989	     -0.26241435	      1.32304739	     -0.09823212	     18.91147807	     -5.84027897	    -12.89028130	     15.53031762	      0.27105518	    -33.55651160	    -10.32915515	     -7.49999987	     12.60231566	     -1.42401544	     -2.53703155	     18.92761716	      0.33034924	    -25.90765137	     -3.88319760	     -7.49999987	     -7.06874890	      3.80194956	     -0.11698778	     60.53089416	     -6.70335501	     14.21601608	     82.05245073	     58.55315598	     58.89709393	     -4.88908895	     22.15060073	     78.51555752	     34.43913090
      2.93333330	    -14.94451831	     -0.59683112	      3.24138707	     -0.25736915	      1.31753678	     -0.09763471	     19.29471407	     -6.05862121	    -13.12488831	     15.37377255	      0.26832295	    -33.55184055	    -10.38144176	     -7.49999987	     12.90851248	     -1.34162235	     -2.50323442	     18.88551980	      0.32961450	    -25.68938676	     -3.84049960	     -7.49999987	     -7.25962019	      3.65679376	      0.07728225	     60.55501605	     -6.78968058	     14.18350445	     82.01551537	     58.56253969	     58.80552844	     -5.10687957	     22.11057421	     78.51304918	     34.60506551
      2.93750000	    -15.22181669	     -0.37916984	      3.24030527	     -0.25115661	      1.31520207	     -0.09761068	     19.93226316	     -6.47111644	    -13.03605881	     15.03908699	      0.26248158	    -33.91008269	    -10.75574232	     -7.49999987	     13.80382216	     -1.25273820	     -2.65589160	     18.94909548	      0.33072411	    -25.50584172	     -4.33610737	     -7.49999987	     -6.88343080	      3.29683448	      0.00229055	     59.95261730	     -6.98049618	     14.06012737	     82.10821866	     58.67624202	     58.06715924	     -5.53003121	     22.13728914	     78.94065612	     35.58830140
      2.94166670	    -15.18923526	     -0.15159553	      3.38354007	     -0.24845167	      1.31168781	     -0.09886531	     20.35000047	     -6.92931021	    -13.39910540	     14.90401883	      0.26012420	    -33.28139437	    -10.86079705	     -7.49999987	     14.51240524	     -0.98175033	     -2.24682577	     19.22887579	      0.33560719	    -25.38199166	     -4.66739827	     -7.49999987	     -7.53037782	      3.16541916	     -0.16223217	     60.01054386	     -7.14085796	     13.98909502	     83.14231222	     58.89838321	     58.01957603	     -6.13500604	     22.54271454	     80.20164969	     36.61292537
      2.94583330	    -15.22993241	     -0.09899624	      3.48344514	     -0.24212931	      1.31068826	     -0.09766750	     20.73550397	     -7.19708844	    -13.57219170	     14.64058451	      0.25552640	    -33.03376419	    -10.32913649	     -7.49999987	     15.04138121	     -0.98236060	     -2.23050761	     19.02700419	      0.33208387	    -25.18723506	     -4.89549234	     -7.49999987	     -7.73007082	      3.15944478	     -0.28709353	     59.75803415	     -7.19785843	     13.96145675	     83.78465808	     59.14427222	     57.68160681	     -6.44448034	     22.76556061	     80.84857883	     37.28701065
      2.95000000	    -15.38945115	     -0.23889429	      3.45523487	     -0.23887478	      1.30591140	     -0.09706736	     21.50410818	     -7.15692232	    -13.74045574	     14.60707840	      0.25494161	    -33.54729350	    -10.51029730	     -7.49999987	     15.75967945	     -1.18849445	     -2.14353069	     19.04416254	      0.33238334	    -25.12723786	     -5.46064394	     -7.49999987	     -7.86502754	      3.33658987	     -0.31901442	     59.72143839	     -7.12465010	     13.96776165	     84.25523684	     59.33935422	     57.56131041	     -6.64756800	     22.75621578	     81.00611388	     38.02011861
      2.95416670	    -15.55248016	     -0.03992736	      3.48054921	     -0.23541828	      1.30179182	     -0.09780485	     22.26021566	     -7.60753068	    -13.59591070	     14.60172197	      0.25484812	    -33.23428371	    -10.42418075	     -7.49999987	     16.56853300	     -0.94175353	     -1.84311539	     19.11452411	      0.33361138	    -24.96748627	     -5.69421012	     -7.49999987	     -7.95533138	      3.14253786	     -0.39915731	     59.64571932	     -7.26793523	     13.98246759	     84.88598302	     59.58561393	     57.55429313	     -6.86329491	     23.00864267	     81.28260692	     38.58115242
      2.95833330	    -16.01064683	      0.03385550	      3.52605788	     -0.23088059	      1.29708078	     -0.09873701	     23.20044388	     -7.85677798	    -13.35948770	     14.41576912	      0.25160264	    -33.79299582	    -11.00016465	     -7.49999987	     17.49296057	     -0.74149835	     -1.58448583	     18.70680950	      0.32649542	    -25.11543294	     -5.87640084	     -7.49999987	     -7.39425896	      3.18065797	     -0.51190296	     59.47166904	     -7.34785416	     13.89216392	     84.88969844	     59.67332681	     57.25296779	     -7.05195663	     22.86875571	     81.04837042	     39.10170573
